HIERARCHY
ROOT root
{
	OFFSET	0	13.1	24.9
	CHANNELS 6  Xposition Yposition Zposition Xrotation Yrotation Zrotation
	JOINT spine_1
	{
		OFFSET	0	9.99999	0
		CHANNELS 3  Xrotation Yrotation Zrotation
		JOINT spine_2
		{
			OFFSET	0	112	-10
			CHANNELS 3  Xrotation Yrotation Zrotation
			JOINT spine_3
			{
				OFFSET	0	206.5	19.3
				CHANNELS 3  Xrotation Yrotation Zrotation
				JOINT spine_4
				{
					OFFSET	0	110.4	14.6
					CHANNELS 3  Xrotation Yrotation Zrotation
					JOINT neck_1
					{
						OFFSET	0	71.8	-50.3
						CHANNELS 3  Xrotation Yrotation Zrotation
						JOINT neck_2
						{
							OFFSET	0	86.2	-25.8
							CHANNELS 3  Xrotation Yrotation Zrotation
							JOINT head_ee
							{
								OFFSET	0	179.8	-8.7
								CHANNELS 3  Xrotation Yrotation Zrotation
								End Site
								{
									OFFSET	1	0	0
								}
							}
						}
					}
					JOINT left_clavicle
					{
						OFFSET	-43.2	22.4	-70.8
						CHANNELS 3  Xrotation Yrotation Zrotation
						JOINT left_shoulder
						{
							OFFSET	-93.9	-5.79999	48.7
							CHANNELS 3  Xrotation Yrotation Zrotation
							JOINT left_elbow
							{
								OFFSET	-291.4	-30.8	15.2
								CHANNELS 3  Xrotation Yrotation Zrotation
								JOINT left_lowarm_twist
								{
									OFFSET	-110.7	-3.89999	13.6
									CHANNELS 3  Xrotation Yrotation Zrotation
									JOINT left_hand
									{
										OFFSET	-110.7	-3.89999	13.6
										CHANNELS 3  Xrotation Yrotation Zrotation
										JOINT left_ee
										{
											OFFSET	-80.8	-5.10001	12.1
											CHANNELS 3  Xrotation Yrotation Zrotation
											End Site
											{
												OFFSET	1	0	0
											}
										}
									}
								}
							}
						}
					}
					JOINT right_clavicle
					{
						OFFSET	43.2	22.4	-70.8
						CHANNELS 3  Xrotation Yrotation Zrotation
						JOINT right_shoulder
						{
							OFFSET	93.9	-5.79999	48.7
							CHANNELS 3  Xrotation Yrotation Zrotation
							JOINT right_elbow
							{
								OFFSET	291.4	-30.8	15.2
								CHANNELS 3  Xrotation Yrotation Zrotation
								JOINT right_lowarm_twist
								{
									OFFSET	110.7	-3.89999	13.6
									CHANNELS 3  Xrotation Yrotation Zrotation
									JOINT right_hand
									{
										OFFSET	110.7	-3.89999	13.6
										CHANNELS 3  Xrotation Yrotation Zrotation
										JOINT right_ee
										{
											OFFSET	80.8	-5.10001	12.1
											CHANNELS 3  Xrotation Yrotation Zrotation
											End Site
											{
												OFFSET	1	0	0
											}
										}
									}
								}
							}
						}
					}
				}
			}
		}
	}
	JOINT left_hip
	{
		OFFSET	-82.8	-127.5	0.300001
		CHANNELS 3  Xrotation Yrotation Zrotation
		JOINT left_knee
		{
			OFFSET	-28.2	-396.7	2.2
			CHANNELS 3  Xrotation Yrotation Zrotation
			JOINT left_ankle
			{
				OFFSET	-11.7	-411.3	35.4
				CHANNELS 3  Xrotation Yrotation Zrotation
				JOINT left_toes
				{
					OFFSET	0	-60	-88.6
					CHANNELS 3  Xrotation Yrotation Zrotation
					JOINT left_foot_ee
					{
						OFFSET	-22.5	-16.5	-42.2
						CHANNELS 3  Xrotation Yrotation Zrotation
						End Site
						{
							OFFSET	1	0	0
						}
					}
				}
			}
		}
	}
	JOINT right_hip
	{
		OFFSET	82.8	-127.5	0.300001
		CHANNELS 3  Xrotation Yrotation Zrotation
		JOINT right_knee
		{
			OFFSET	28.2	-396.7	2.2
			CHANNELS 3  Xrotation Yrotation Zrotation
			JOINT right_ankle
			{
				OFFSET	11.7	-411.3	35.4
				CHANNELS 3  Xrotation Yrotation Zrotation
				JOINT right_toes
				{
					OFFSET	0	-60	-88.6
					CHANNELS 3  Xrotation Yrotation Zrotation
					JOINT right_foot_ee
					{
						OFFSET	22.5	-16.5	-42.2
						CHANNELS 3  Xrotation Yrotation Zrotation
						End Site
						{
							OFFSET	1	0	0
						}
					}
				}
			}
		}
	}
}
MOTION
Frames: 6
Frame Time: 0.02
2825.24900889 703.009 -1620.03258215 1.4202356789 68.5659370409 -0.431808352984 0.0366008 0.622686 -0.526257 0.0365162 0.654911 -0.485567 0.0307627 0.742168 -0.337441 0.0312485 0.679561 -0.450421 -5.96737 15.4621 6.8263 -5.80915 23.6231 9.74783 -0.0 0.0 -0.0 5.29946 -12.1221 9.68164 -13.1279 -17.9334 52.694 1.14674 -29.5983 0.302975 11.3915 0.259997 -1.42955 -0.895796 1.33036 -5.40778 -0.0 0.0 -0.0 2.04762 9.80025 -3.07508 -4.91493 18.6467 -69.6366 1.06344 27.7794 -0.262979 24.0483 -0.21166 3.04219 1.6799 -5.22237 -13.3345 0.0 0.0 0.0 9.52204 -38.7677 7.09541 -10.8904 0.292979 1.64313 4.52353 27.3897 -0.692626 16.8389 -0.0 -0.0 -0.0 0.0 -0.0 16.6559 15.6664 -1.48574 -41.5062 0.565358 -6.20782 12.5718 -18.1586 1.80028 -1.85819 0.0 0.0 0.0 0.0 0.0 
2820.31277376 706.036 -1601.11494553 2.69651895905 69.7193816453 -1.85619018538 0.0423717 0.564257 -0.50739 0.0423176 0.5954 -0.470457 0.0372589 0.680772 -0.335226 0.0376376 0.619286 -0.438537 -5.98243 15.5175 6.93722 -5.82108 23.6482 9.87107 -0.0 0.0 -0.0 5.15936 -12.4888 9.36154 -12.3121 -18.1089 51.6299 1.17191 -30.1353 0.315506 11.3531 0.259601 -1.42467 -0.908832 1.24462 -5.53265 -0.0 0.0 -0.0 1.8897 9.71387 -2.75677 -5.53703 18.4596 -69.393 1.01974 26.7999 -0.242941 24.0037 -0.212454 3.03655 1.66104 -5.38458 -13.2685 0.0 0.0 0.0 8.44441 -38.6523 7.84835 -10.9291 0.293459 1.64904 4.51537 27.3896 -0.691391 16.8385 -0.0 -0.0 -0.0 0.0 -0.0 18.3093 15.4572 -2.12926 -40.6004 0.505406 -6.08212 12.5721 -18.145 1.80024 -1.86474 0.0 0.0 0.0 0.0 0.0 
2822.53269666 706.036 -1590.38096967 2.93766700634 71.4466815504 -2.11185173687 0.0423717 0.564257 -0.50739 0.0423176 0.5954 -0.470457 0.0372589 0.680772 -0.335226 0.0376376 0.619286 -0.438537 -5.98243 15.5175 6.93722 -5.82108 23.6482 9.87107 -0.0 0.0 -0.0 5.15936 -12.4888 9.36154 -12.3121 -18.1089 51.6299 1.17191 -30.1353 0.315506 11.3531 0.259601 -1.42467 -0.908832 1.24462 -5.53265 -0.0 0.0 -0.0 1.8897 9.71387 -2.75677 -5.53703 18.4596 -69.393 1.01974 26.7999 -0.242941 24.0037 -0.212454 3.03655 1.66104 -5.38458 -13.2685 0.0 0.0 0.0 8.44441 -38.6523 7.84835 -10.9291 0.293459 1.64904 4.51537 27.3896 -0.691391 16.8385 -0.0 -0.0 -0.0 0.0 -0.0 18.3093 15.4572 -2.12926 -40.6004 0.505406 -6.08212 12.5721 -18.145 1.80024 -1.86474 0.0 0.0 0.0 0.0 0.0 
2792.17966333 714.078 -1583.0621375 1.90915412549 69.0728965829 -0.776056041869 -0.0725538 0.373742 -0.305482 -0.0725877 0.392424 -0.281081 -0.0745882 0.442987 -0.191741 -0.0744078 0.407146 -0.259297 -5.84989 16.2195 6.98108 -5.67345 24.8923 10.0213 -0.0 0.0 -0.0 4.84108 -10.6058 8.81623 -7.85586 -17.9616 47.743 1.60682 -38.5158 0.561407 9.14691 0.231353 -1.14429 -0.993714 1.17255 -6.13236 -0.0 0.0 -0.0 2.30297 12.2256 -3.37978 -7.69733 17.617 -69.3843 0.560169 15.509 -0.0762813 23.7914 -0.21618 3.00969 1.56342 -6.00415 -12.8452 0.0 0.0 0.0 7.99247 -36.1329 8.80715 -8.33446 0.25238 1.25306 4.74309 28.7859 -0.73226 16.8748 -0.0 -0.0 -0.0 0.0 -0.0 20.7626 14.2414 -2.05278 -35.0084 0.180112 -5.28699 7.89431 -16.7998 1.14341 -3.29096 0.0 0.0 0.0 0.0 0.0 
2770.35622907 707.526 -1572.34799512 5.90638511377 70.6035662866 -5.291508926 -0.280439 0.197496 0.062677 -0.280457 0.193107 0.0751172 -0.280205 0.172447 0.11487 -0.280174 0.188424 0.0861937 -6.89778 16.1691 6.60539 -6.79728 25.3364 9.84274 -0.0 0.0 -0.0 5.26915 -6.5158 9.93542 -1.50087 -14.7596 45.758 2.38394 -49.7351 1.10507 3.56072 0.111777 -0.440999 -2.23622 3.7052 -13.3298 -0.0 0.0 -0.0 2.28051 12.2238 -3.3329 -9.7063 16.8087 -69.7585 0.439881 12.293 -0.0473712 23.5793 -0.2198 2.98284 1.35443 -15.7886 -14.97 0.0 0.0 0.0 1.40848 -32.4634 11.016 -5.73827 0.193369 0.859059 4.42238 29.1576 -0.684985 17.2235 -0.0 -0.0 -0.0 0.0 -0.0 26.5613 13.689 -3.96524 -31.417 0.0128142 -4.76146 0.190631 -17.0833 0.0282073 -4.86944 0.0 0.0 0.0 0.0 0.0 
2771.68968184 707.526 -1566.91564733 6.13980485565 71.3659572397 -5.53839558592 -0.280439 0.197496 0.062677 -0.280457 0.193107 0.0751172 -0.280205 0.172447 0.11487 -0.280174 0.188424 0.0861937 -6.89778 16.1691 6.60539 -6.79728 25.3364 9.84274 -0.0 0.0 -0.0 5.26915 -6.5158 9.93542 -1.50087 -14.7596 45.758 2.38394 -49.7351 1.10507 3.56072 0.111777 -0.440999 -2.23622 3.7052 -13.3298 -0.0 0.0 -0.0 2.28051 12.2238 -3.3329 -9.7063 16.8087 -69.7585 0.439881 12.293 -0.0473712 23.5793 -0.2198 2.98284 1.35443 -15.7886 -14.97 0.0 0.0 0.0 1.40848 -32.4634 11.016 -5.73827 0.193369 0.859059 4.42238 29.1576 -0.684985 17.2235 -0.0 -0.0 -0.0 0.0 -0.0 26.5613 13.689 -3.96524 -31.417 0.0128142 -4.76146 0.190631 -17.0833 0.0282073 -4.86944 0.0 0.0 0.0 0.0 0.0 
